<svg width="11" height="11" viewBox="0 0 11 11" fill="none" xmlns="http://www.w3.org/2000/svg">
<path d="M10.0319 5.61215C9.96088 5.55176 9.87483 5.51311 9.78352 5.50058C9.69221 5.48805 9.59933 5.50216 9.51543 5.5413C8.99533 5.7862 8.42984 5.91224 7.85787 5.91076C6.79981 5.90944 5.78517 5.47775 5.03517 4.7098C4.28517 3.94185 3.86064 2.89994 3.85415 1.81123C3.85639 1.47002 3.89767 1.13028 3.97712 0.799C3.99397 0.710703 3.98765 0.619377 3.9588 0.534431C3.92994 0.449485 3.8796 0.373991 3.81295 0.315727C3.74631 0.257463 3.66577 0.218536 3.57964 0.202956C3.49351 0.187376 3.4049 0.195707 3.32294 0.22709C2.55187 0.583855 1.88159 1.13646 1.37507 1.83298C0.868549 2.52951 0.542415 3.3471 0.427305 4.20894C0.312196 5.07078 0.411889 5.94859 0.71702 6.7599C1.02215 7.57121 1.5227 8.28939 2.17165 8.84697C2.8206 9.40455 3.59665 9.78323 4.42689 9.94744C5.25713 10.1116 6.11431 10.056 6.91791 9.78569C7.7215 9.5154 8.44513 9.03934 9.02082 8.40224C9.5965 7.76514 10.0054 6.98791 10.2089 6.14357C10.2337 6.0469 10.2302 5.94484 10.1987 5.85026C10.1671 5.75568 10.1091 5.67283 10.0319 5.61215ZM5.35923 8.99806C4.53378 8.99207 3.7303 8.72368 3.05881 8.22964C2.38733 7.73561 1.88065 7.04008 1.60817 6.23828C1.33569 5.43649 1.31072 4.56763 1.53669 3.75066C1.76265 2.9337 2.22849 2.20858 2.87044 1.67458V1.81123C2.87174 3.17191 3.39762 4.47648 4.33266 5.43863C5.2677 6.40077 6.53552 6.94189 7.85787 6.94323C8.20506 6.94455 8.55138 6.90721 8.89077 6.83189C8.55134 7.49263 8.04304 8.04547 7.42069 8.43078C6.79833 8.81609 6.08555 9.01923 5.35923 9.0183V8.99806Z" fill="white"/>
</svg>
